grf
version=1
nRows=14
nColumns=37
inDegrees=no
endheader
time	ground_force_1_vx	ground_force_1_vy	ground_force_1_vz	ground_force_1_px	ground_force_1_py	ground_force_1_pz	ground_moment_1_mx	ground_moment_1_my	ground_moment_1_mz	ground_force_2_vx	ground_force_2_vy	ground_force_2_vz	ground_force_2_px	ground_force_2_py	ground_force_2_pz	ground_moment_2_mx	ground_moment_2_my	ground_moment_2_mz	ground_force_3_vx	ground_force_3_vy	ground_force_3_vz	ground_force_3_px	ground_force_3_py	ground_force_3_pz	ground_moment_3_mx	ground_moment_3_my	ground_moment_3_mz	ground_force_4_vx	ground_force_4_vy	ground_force_4_vz	ground_force_4_px	ground_force_4_py	ground_force_4_pz	ground_moment_4_mx	ground_moment_4_my	ground_moment_4_mz
      5.86000000	      0.00000000	     -0.00000000	      0.00000000	      0.00000000	      0.00000000	      0.00000000	      0.00000000	      0.00000000	      0.00000000	    -24.48624611	     99.16616821	   -440.39923096	   -184.88603522	  -1195.89345147	      0.00000000	      0.00000000	     -0.00000000	  -2267.25510309	      9.02028375	    -75.80809863	   -324.36187744	   -221.01448208	   -578.70279304	      0.00000000	      0.00000000	      0.00000000	   4237.77191821	      0.00000000	     -0.00000000	      0.00000000	      0.00000000	      0.00000000	      0.00000000	      0.00000000	      0.00000000	      0.00000000
      5.87000000	      0.00000000	     -0.00000000	      0.00000000	      0.00000000	      0.00000000	      0.00000000	      0.00000000	      0.00000000	      0.00000000	    -23.99762726	     95.50490570	   -425.01623535	   -186.73679917	  -1197.43733681	      0.00000000	      0.00000000	     -0.00000000	  -2338.32793657	      9.55228444	    -74.04193199	   -314.93475342	   -220.22602836	   -577.88790538	      0.00000000	      0.00000000	      0.00000000	   4220.57658776	      0.00000000	     -0.00000000	      0.00000000	      0.00000000	      0.00000000	      0.00000000	      0.00000000	      0.00000000	      0.00000000
      5.88000000	      0.00000000	     -0.00000000	      0.00000000	      0.00000000	      0.00000000	      0.00000000	      0.00000000	      0.00000000	      0.00000000	    -23.11883163	     91.13461304	   -407.87991333	   -187.93463604	  -1194.83999981	      0.00000000	      0.00000000	     -0.00000000	  -2451.71857362	      8.06307156	    -72.78662943	   -305.81903076	   -217.44553307	   -577.39616001	      0.00000000	      0.00000000	      0.00000000	   4388.46807246	      0.00000000	     -0.00000000	      0.00000000	      0.00000000	      0.00000000	      0.00000000	      0.00000000	      0.00000000	      0.00000000
      5.89000000	      0.00000000	     -0.00000000	      0.00000000	      0.00000000	      0.00000000	      0.00000000	      0.00000000	      0.00000000	      0.00000000	    -20.41675568	     87.91545105	   -395.33862305	   -189.90247309	  -1194.70300629	      0.00000000	      0.00000000	     -0.00000000	  -2361.65986467	      7.24510116	    -74.19021670	   -302.56137085	   -216.43233174	   -574.55392184	      0.00000000	      0.00000000	      0.00000000	   4743.34909352	      0.00000000	     -0.00000000	      0.00000000	      0.00000000	      0.00000000	      0.00000000	      0.00000000	      0.00000000	      0.00000000
      5.90000000	      0.00000000	     -0.00000000	      0.00000000	      0.00000000	      0.00000000	      0.00000000	      0.00000000	      0.00000000	      0.00000000	    -15.73428631	     84.40649414	   -387.52612305	   -192.85912807	  -1194.45948452	      0.00000000	      0.00000000	     -0.00000000	  -2102.14667592	      8.15154754	    -75.09302592	   -299.14483643	   -216.04698151	   -574.24845399	      0.00000000	      0.00000000	      0.00000000	   4882.69130409	      0.00000000	     -0.00000000	      0.00000000	      0.00000000	      0.00000000	      0.00000000	      0.00000000	      0.00000000	      0.00000000
      5.91000000	      0.00000000	     -0.00000000	      0.00000000	      0.00000000	      0.00000000	      0.00000000	      0.00000000	      0.00000000	      0.00000000	    -12.15496445	     81.00837708	   -378.87368774	   -195.45096377	  -1193.97418601	      0.00000000	      0.00000000	     -0.00000000	  -2004.45675637	     10.08324424	    -77.27097409	   -298.25360107	   -215.59033345	   -573.52130517	      0.00000000	      0.00000000	      0.00000000	   5317.15580952	      0.00000000	     -0.00000000	      0.00000000	      0.00000000	      0.00000000	      0.00000000	      0.00000000	      0.00000000	      0.00000000
      5.92000000	      0.00000000	     -0.00000000	      0.00000000	      0.00000000	      0.00000000	      0.00000000	      0.00000000	      0.00000000	      0.00000000	    -10.27051353	     76.95342255	   -365.98391724	   -195.75795996	  -1193.40783132	      0.00000000	      0.00000000	     -0.00000000	  -1727.32253726	     12.43777444	    -78.89129747	   -297.82635498	   -217.02620821	   -572.47215582	      0.00000000	      0.00000000	      0.00000000	   5433.46275141	      0.00000000	     -0.00000000	      0.00000000	      0.00000000	      0.00000000	      0.00000000	      0.00000000	      0.00000000	      0.00000000
      5.93000000	      0.00000000	     -0.00000000	      0.00000000	      0.00000000	      0.00000000	      0.00000000	      0.00000000	      0.00000000	      0.00000000	     -9.24360943	     73.16685486	   -350.75292969	   -194.24054837	  -1194.22216437	      0.00000000	      0.00000000	     -0.00000000	  -1427.43919457	     14.41911197	    -79.10875065	   -297.70608521	   -216.95317983	   -571.18089961	      0.00000000	     -0.00000000	     -0.00000000	   5765.22551368	      0.00000000	     -0.00000000	      0.00000000	      0.00000000	      0.00000000	      0.00000000	      0.00000000	      0.00000000	      0.00000000
      5.94000000	      0.00000000	     -0.00000000	      0.00000000	      0.00000000	      0.00000000	      0.00000000	      0.00000000	      0.00000000	      0.00000000	     -8.06668472	     69.20819855	   -334.38235474	   -193.64890466	  -1194.30915911	      0.00000000	      0.00000000	     -0.00000000	   -985.93317801	     13.86976690	    -79.67247131	   -294.72448730	   -216.48477721	   -572.50541593	      0.00000000	      0.00000000	      0.00000000	   6179.92976211	      0.00000000	     -0.00000000	      0.00000000	      0.00000000	      0.00000000	      0.00000000	      0.00000000	      0.00000000	      0.00000000
      5.95000000	      0.00000000	     -0.00000000	      0.00000000	      0.00000000	      0.00000000	      0.00000000	      0.00000000	      0.00000000	      0.00000000	     -7.84272146	     64.91017151	   -319.27465820	   -191.92370095	  -1194.02998817	      0.00000000	      0.00000000	     -0.00000000	   -808.70502370	     11.29741912	    -81.20899299	   -297.78546143	   -219.41693377	   -572.51749197	      0.00000000	      0.00000000	      0.00000000	   5810.37307942	      0.00000000	     -0.00000000	      0.00000000	      0.00000000	      0.00000000	      0.00000000	      0.00000000	      0.00000000	      0.00000000
      5.96000000	      0.00000000	     -0.00000000	      0.00000000	      0.00000000	      0.00000000	      0.00000000	      0.00000000	      0.00000000	      0.00000000	     -8.55246639	     62.46868134	   -307.14581299	   -191.53292794	  -1193.52838864	      0.00000000	      0.00000000	     -0.00000000	   -788.46943262	      8.64692928	    -81.66620712	   -304.43753052	   -221.62999070	   -573.67542044	      0.00000000	      0.00000000	      0.00000000	   5475.02622858	      0.00000000	     -0.00000000	      0.00000000	      0.00000000	      0.00000000	      0.00000000	      0.00000000	      0.00000000	      0.00000000
      5.97000000	      0.00000000	     -0.00000000	      0.00000000	      0.00000000	      0.00000000	      0.00000000	      0.00000000	      0.00000000	      0.00000000	     -9.87865639	     60.48401260	   -303.24078369	   -194.32592456	  -1193.53250561	      0.00000000	      0.00000000	     -0.00000000	   -538.27314980	      5.59938197	    -81.32314349	   -311.61026001	   -223.77294844	   -575.17249376	      0.00000000	      0.00000000	      0.00000000	   5407.94208345	      0.00000000	     -0.00000000	      0.00000000	      0.00000000	      0.00000000	      0.00000000	      0.00000000	      0.00000000	      0.00000000
      5.98000000	      0.00000000	     -0.00000000	      0.00000000	      0.00000000	      0.00000000	      0.00000000	      0.00000000	      0.00000000	      0.00000000	    -11.48415089	     58.91519928	   -302.72274780	   -197.32152092	  -1194.66513109	      0.00000000	      0.00000000	     -0.00000000	   -425.01952248	      5.64521469	    -80.25228168	   -321.83312988	   -229.12051178	   -576.31967839	      0.00000000	      0.00000000	      0.00000000	   4817.64313074	      0.00000000	     -0.00000000	      0.00000000	      0.00000000	      0.00000000	      0.00000000	      0.00000000	      0.00000000	      0.00000000
      5.99000000	      0.00000000	     -0.00000000	      0.00000000	      0.00000000	      0.00000000	      0.00000000	      0.00000000	      0.00000000	      0.00000000	    -11.25261593	     58.99681091	   -305.26132202	   -201.99053125	  -1193.38558092	      0.00000000	      0.00000000	      0.00000000	     36.84686247	      8.00760537	    -78.50717996	   -331.65133667	   -233.64091800	   -580.52472991	      0.00000000	     -0.00000000	      0.00000000	   4368.75554264	      0.00000000	     -0.00000000	      0.00000000	      0.00000000	      0.00000000	      0.00000000	      0.00000000	      0.00000000	      0.00000000
